<svg width="32" height="32" viewBox="0 0 32 32" fill="none" xmlns="http://www.w3.org/2000/svg">
<g filter="url(#filter0_d_3065_31507)">
<path d="M16.0159 10.75C15.901 10.75 15.7872 10.7726 15.681 10.8166C15.5749 10.8606 15.4784 10.925 15.3972 11.0063C15.3159 11.0875 15.2514 11.184 15.2075 11.2902C15.1635 11.3963 15.1409 11.5101 15.1409 11.625C15.1409 11.7399 15.1635 11.8537 15.2075 11.9598C15.2514 12.066 15.3159 12.1625 15.3972 12.2437C15.4784 12.325 15.5749 12.3894 15.681 12.4334C15.7872 12.4774 15.901 12.5 16.0159 12.5C16.1308 12.5 16.2446 12.4774 16.3507 12.4334C16.4569 12.3894 16.5533 12.325 16.6346 12.2437C16.7158 12.1625 16.7803 12.066 16.8243 11.9598C16.8682 11.8537 16.8909 11.7399 16.8909 11.625C16.8909 11.5101 16.8682 11.3963 16.8243 11.2902C16.7803 11.184 16.7158 11.0875 16.6346 11.0063C16.5533 10.925 16.4569 10.8606 16.3507 10.8166C16.2446 10.7726 16.1308 10.75 16.0159 10.75ZM16.0159 15.125C15.7838 15.125 15.5612 15.2172 15.3972 15.3813C15.2331 15.5454 15.1409 15.7679 15.1409 16C15.1409 16.2321 15.2331 16.4546 15.3972 16.6187C15.5612 16.7828 15.7838 16.875 16.0159 16.875C16.2479 16.875 16.4705 16.7828 16.6346 16.6187C16.7987 16.4546 16.8909 16.2321 16.8909 16C16.8909 15.7679 16.7987 15.5454 16.6346 15.3813C16.4705 15.2172 16.2479 15.125 16.0159 15.125ZM16.0159 19.5C15.7838 19.5 15.5612 19.5922 15.3972 19.7563C15.2331 19.9204 15.1409 20.1429 15.1409 20.375C15.1409 20.6071 15.2331 20.8296 15.3972 20.9937C15.5612 21.1578 15.7838 21.25 16.0159 21.25C16.2479 21.25 16.4705 21.1578 16.6346 20.9937C16.7987 20.8296 16.8909 20.6071 16.8909 20.375C16.8909 20.1429 16.7987 19.9204 16.6346 19.7563C16.4705 19.5922 16.2479 19.5 16.0159 19.5Z" fill="black"/>
</g>
<defs>
<filter id="filter0_d_3065_31507" x="-4" y="0" width="40" height="40" filterUnits="userSpaceOnUse" color-interpolation-filters="sRGB">
<feFlood flood-opacity="0" result="BackgroundImageFix"/>
<feColorMatrix in="SourceAlpha" type="matrix" values="0 0 0 0 0 0 0 0 0 0 0 0 0 0 0 0 0 0 127 0" result="hardAlpha"/>
<feOffset dy="4"/>
<feGaussianBlur stdDeviation="2"/>
<feComposite in2="hardAlpha" operator="out"/>
<feColorMatrix type="matrix" values="0 0 0 0 0 0 0 0 0 0 0 0 0 0 0 0 0 0 0.25 0"/>
<feBlend mode="normal" in2="BackgroundImageFix" result="effect1_dropShadow_3065_31507"/>
<feBlend mode="normal" in="SourceGraphic" in2="effect1_dropShadow_3065_31507" result="shape"/>
</filter>
</defs>
</svg>
